<?xml version="1.0" encoding="iso-8859-1"?>
<!-- Generator: Adobe Illustrator 19.0.0, SVG Export Plug-In . SVG Version: 6.00 Build 0)  -->
<svg version="1.1" id="Layer_1" xmlns="http://www.w3.org/2000/svg" xmlns:xlink="http://www.w3.org/1999/xlink" x="0px" y="0px"
	 viewBox="0 0 512.001 512.001" style="enable-background:new 0 0 512.001 512.001;" xml:space="preserve">
<g>
	<g>
		<g>
			<path d="M123.901,168h-15.802c0,15.494-12.605,28.099-28.099,28.099v15.802c15.494,0,28.099,12.605,28.099,28.099h15.802
				c0-15.494,12.605-28.099,28.099-28.099v-15.802C136.506,196.099,123.901,183.494,123.901,168z M116,214.899
				c-2.966-4.24-6.659-7.934-10.9-10.899c4.24-2.966,7.934-6.659,10.9-10.899c2.966,4.24,6.659,7.934,10.899,10.899
				C122.659,206.966,118.966,210.658,116,214.899z"/>
			<path d="M144.001,336.098c-35.344,0-64.099-28.754-64.099-64.099H64.1c0,35.344-28.754,64.099-64.099,64.099v15.802
				c35.344,0,64.099,28.754,64.099,64.099h15.802c0-35.344,28.754-64.099,64.099-64.099V336.098z M72.001,381.369
				c-7.862-16.282-21.088-29.506-37.37-37.37c16.282-7.862,29.506-21.088,37.37-37.37c7.862,16.282,21.088,29.506,37.37,37.37
				C93.089,351.863,79.863,365.088,72.001,381.369z"/>
			<path d="M479.901,168h-15.802c0,17.699-14.399,32.099-32.099,32.099v15.802c17.699,0,32.099,14.399,32.099,32.099h15.802
				c0-17.699,14.399-32.099,32.099-32.099v-15.802C494.302,200.099,479.901,185.699,479.901,168z M472,221.672
				c-3.584-5.428-8.244-10.087-13.671-13.671c5.428-3.584,10.087-8.244,13.671-13.671c3.584,5.428,8.244,10.087,13.671,13.671
				C480.244,211.585,475.585,216.244,472,221.672z"/>
			<path d="M240.001,240.098v15.802C257.7,255.901,272.1,270.3,272.1,288h15.802c0-17.699,14.399-32.099,32.099-32.099v-15.802
				c-17.699,0-32.099-14.399-32.099-32.099H272.1C272.099,225.699,257.7,240.098,240.001,240.098z M280,234.328
				c3.584,5.428,8.244,10.087,13.671,13.671c-5.428,3.584-10.087,8.244-13.671,13.671c-3.584-5.428-8.244-10.087-13.671-13.671
				C271.757,244.416,276.416,239.756,280,234.328z"/>
			<path d="M32.1,87.947h15.802c0-17.699,14.399-32.099,32.099-32.099V40.046c-17.699,0-32.099-14.399-32.099-32.099H32.1
				C32.1,25.645,17.7,40.046,0,40.046v15.802C17.699,55.848,32.1,70.248,32.1,87.947z M40.001,34.276
				c3.584,5.428,8.244,10.087,13.671,13.671c-5.428,3.584-10.087,8.244-13.671,13.671c-3.584-5.428-8.244-10.087-13.671-13.671
				C31.757,44.363,36.416,39.703,40.001,34.276z"/>
			<path d="M352.099,80.001h15.802c0-17.699,14.399-32.099,32.099-32.099V32.099c-17.699,0-32.099-14.399-32.099-32.099h-15.802
				c0,17.699-14.399,32.099-32.099,32.099v15.802C337.699,47.901,352.099,62.301,352.099,80.001z M360.001,26.329
				c3.584,5.428,8.244,10.087,13.671,13.671c-5.428,3.584-10.087,8.244-13.671,13.671c-3.584-5.428-8.244-10.087-13.671-13.671
				C351.757,36.415,356.416,31.757,360.001,26.329z"/>
			<path d="M183.902,432H168.1c0,17.699-14.399,32.099-32.099,32.099v15.802c17.699,0,32.099,14.399,32.099,32.099h15.802
				c0-17.699,14.399-32.099,32.099-32.099V464.1C198.301,464.098,183.902,449.699,183.902,432z M176.001,485.671
				c-3.584-5.428-8.244-10.087-13.671-13.671c5.428-3.584,10.087-8.244,13.671-13.671c3.584,5.428,8.244,10.087,13.671,13.671
				C184.245,475.585,179.585,480.243,176.001,485.671z"/>
			<path d="M359.902,288h-15.802c0,57.4-46.698,104.099-104.099,104.099v15.802c57.4,0,104.099,46.698,104.099,104.099h15.802
				c0-57.4,46.698-104.099,104.099-104.099v-15.802C406.6,392.099,359.902,345.4,359.902,288z M352,469.181
				c-12.171-31.723-37.457-57.01-69.18-69.18c31.723-12.171,57.01-37.457,69.18-69.18c12.171,31.723,37.457,57.01,69.18,69.18
				C389.458,412.171,364.172,437.458,352,469.181z"/>
			<path d="M168.1,184h15.802c0-44.167,35.932-80.099,80.098-80.099V88.099c-44.167,0-80.098-35.932-80.098-80.099H168.1
				c0,44.167-35.932,80.099-80.099,80.099v15.802C132.167,103.901,168.1,139.833,168.1,184z M176.001,46.116
				C185.69,68.399,203.602,86.311,225.885,96c-22.284,9.689-40.195,27.601-49.884,49.884C166.312,123.601,148.4,105.689,126.117,96
				C148.399,86.311,166.312,68.399,176.001,46.116z"/>
		</g>
	</g>
</g>
<g>
</g>
<g>
</g>
<g>
</g>
<g>
</g>
<g>
</g>
<g>
</g>
<g>
</g>
<g>
</g>
<g>
</g>
<g>
</g>
<g>
</g>
<g>
</g>
<g>
</g>
<g>
</g>
<g>
</g>
</svg>
