<svg width="800" height="600" xmlns="http://www.w3.org/2000/svg">

 <g>
  <title>Layer 1</title>
  <g>
   <path fill="#ffffff" d="m450.69238,300.0095l171.138,-171.127c6.076,-6.077 6.076,-15.911 0,-21.986l-32.707,-32.719c-2.913,-2.911 -6.866,-4.55 -10.992,-4.55c-4.127,0 -8.08,1.639 -10.993,4.55l-171.138,171.14l-171.138,-171.14c-2.913,-2.911 -6.866,-4.55 -10.993,-4.55c-4.126,0 -8.08,1.639 -10.992,4.55l-32.707,32.719c-6.077,6.075 -6.077,15.909 0,21.986l171.138,171.128l-171.121,171.107c-6.074,6.077 -6.074,15.911 0,21.986l32.709,32.719c2.911,2.911 6.865,4.55 10.992,4.55c4.127,0 8.08,-1.639 10.994,-4.55l171.117,-171.12l171.118,171.12c2.913,2.911 6.866,4.55 10.993,4.55c4.128,0 8.081,-1.639 10.992,-4.55l32.709,-32.719c6.074,-6.075 6.074,-15.909 0,-21.986l-171.119,-171.108z"/>
   <g/>
   <g/>
   <g/>
   <g/>
   <g/>
   <g/>
   <g/>
   <g/>
   <g/>
   <g/>
   <g/>
   <g/>
   <g/>
   <g/>
   <g/>
  </g>
 </g>
</svg>